# xmcd
#
# Track frame offsets:
#	150
#	15410
#	29149
#	55516
#	72077
#	108469
#	125055
#	135693
#	161223
#	179296
#	191140
#	211583
#	254112
#	274480
#	294373
#	320087
#
# Disc length: 4785 seconds
#
# Revision: 1
# Processed by: cddbd v1.5.2PL0 Copyright (c) Steve Scherf et al.
# Submitted via: EZCDAudioConverter 6.0.0.1
#
DISCID=fc12af10
DTITLE=Various Artist - Akella Presents - Extra Edition - Ufa-City Blues  CD2
DYEAR=2017
DGENRE=Blues
TTITLE0=Rinat Bilalov - I Believe To My Soul
TTITLE1=Boogie Band - Last Time
TTITLE2=Rhythm and Blues Trio - Gimme One Reason
TTITLE3=Uai-71 - Blowing In The Winds
TTITLE4=Outrider - Dengue Woman
TTITLE5=Boogie Band - 29 Ways
TTITLE6=Wings - Walk
TTITLE7=Uai-71 - The Blues Of His Native City
TTITLE8=Boogie Band - Dark Blues
TTITLE9=Line Of Life - Trash
TTITLE10=Boogie Band - I'm Going ...
TTITLE11=Funky House Band - Super Blue
TTITLE12=Boogie Band - Sausage
TTITLE13=Line Of Life - Tomorrow
TTITLE14=Uai-71 - Three Windows
TTITLE15=Gagarin - Rock'n'Roll Hali Gali
EXTD=
EXTT0=
EXTT1=
EXTT2=
EXTT3=
EXTT4=
EXTT5=
EXTT6=
EXTT7=
EXTT8=
EXTT9=
EXTT10=
EXTT11=
EXTT12=
EXTT13=
EXTT14=
EXTT15=
PLAYORDER=
